# xmcd
#
# Track frame offsets:
#	150
#	11175
#	33060
#	51070
#	73570
#	99040
#	121045
#	146620
#	172645
#
# Disc length: 2623 seconds
#
# Revision: 0
# Processed by: cddbd v1.5.2PL0 Copyright (c) Steve Scherf et al.
# Submitted via: EasyCDDAExtractor 9.0.0.1
#
DISCID=610a3d09
DTITLE=Ozzy Osbourne - Sportatorium Hollywood FL 05-09-86 Disc 1
DYEAR=1986
DGENRE=Hard Rock
TTITLE0=Carmina Burana
TTITLE1=Bark At The Moon
TTITLE2=Suicide Solution
TTITLE3=Never Know Why
TTITLE4=Mr Crowley
TTITLE5=Shot In The Dark
TTITLE6=I Don't Know
TTITLE7=Killer Of Giant
TTITLE8=Jake E Lee Solo
EXTD=
EXTT0=
EXTT1=
EXTT2=
EXTT3=
EXTT4=
EXTT5=
EXTT6=
EXTT7=
EXTT8=
PLAYORDER=
